<svg width="20" height="20" viewBox="0 0 20 20" fill="none" xmlns="http://www.w3.org/2000/svg">
<path d="M16.6667 1.66675H3.33341C2.41294 1.66675 1.66675 2.41294 1.66675 3.33341V6.66675C1.66675 7.58722 2.41294 8.33341 3.33341 8.33341H16.6667C17.5872 8.33341 18.3334 7.58722 18.3334 6.66675V3.33341C18.3334 2.41294 17.5872 1.66675 16.6667 1.66675Z" stroke="#FC881D" stroke-width="2" stroke-linecap="round" stroke-linejoin="round"/>
<path d="M16.6667 11.6667H3.33341C2.41294 11.6667 1.66675 12.4129 1.66675 13.3334V16.6667C1.66675 17.5872 2.41294 18.3334 3.33341 18.3334H16.6667C17.5872 18.3334 18.3334 17.5872 18.3334 16.6667V13.3334C18.3334 12.4129 17.5872 11.6667 16.6667 11.6667Z" stroke="#FC881D" stroke-width="2" stroke-linecap="round" stroke-linejoin="round"/>
<path d="M5 5H5.00833" stroke="#FC881D" stroke-width="2" stroke-linecap="round" stroke-linejoin="round"/>
<path d="M5 15H5.00833" stroke="#FC881D" stroke-width="2" stroke-linecap="round" stroke-linejoin="round"/>
</svg>
